<?xml version="1.0" encoding="utf-8"?>
<!-- Generator: Adobe Illustrator 16.0.0, SVG Export Plug-In . SVG Version: 6.00 Build 0)  -->
<!DOCTYPE svg PUBLIC "-//W3C//DTD SVG 1.1//EN" "http://www.w3.org/Graphics/SVG/1.1/DTD/svg11.dtd">
<svg version="1.1" id="Layer_1" xmlns="http://www.w3.org/2000/svg" xmlns:xlink="http://www.w3.org/1999/xlink" x="0px" y="0px"
	 width="1054.449px" height="749.962px" viewBox="0 0 1054.449 749.962" enable-background="new 0 0 1054.449 749.962"
	 xml:space="preserve">
<g>
	<defs>
		<path id="SVGID_1_" d="M489.635,383.074v60.77h86.327c16.754,0,30.385-13.629,30.385-30.385c0-16.754-13.631-30.385-30.385-30.385
			H489.635z"/>
	</defs>
	<clipPath id="SVGID_2_">
		<use xlink:href="#SVGID_1_"  overflow="visible"/>
	</clipPath>
	
		<linearGradient id="SVGID_3_" gradientUnits="userSpaceOnUse" x1="-371.1206" y1="959.9448" x2="-370.1206" y2="959.9448" gradientTransform="matrix(69.4055 83.8274 83.8274 -69.4055 -54202.6328 98102.25)">
		<stop  offset="0" style="stop-color:#FAD05B"/>
		<stop  offset="1" style="stop-color:#F26F5F"/>
	</linearGradient>
	<polygon clip-path="url(#SVGID_2_)" fill="url(#SVGID_3_)" points="558.879,325.743 636.198,419.128 537.103,501.175 
		459.783,407.79 	"/>
</g>
<g>
	<defs>
		<path id="SVGID_4_" d="M489.635,263.946v60.772h58.356c16.755,0,30.387-13.631,30.387-30.385
			c0-16.756-13.632-30.387-30.387-30.387H489.635z"/>
	</defs>
	<clipPath id="SVGID_5_">
		<use xlink:href="#SVGID_4_"  overflow="visible"/>
	</clipPath>
	
		<linearGradient id="SVGID_6_" gradientUnits="userSpaceOnUse" x1="-371.1201" y1="959.9565" x2="-370.1201" y2="959.9565" gradientTransform="matrix(58.0297 70.0878 70.0878 -58.0297 -45244.2383 81971.5313)">
		<stop  offset="0" style="stop-color:#FAD05B"/>
		<stop  offset="1" style="stop-color:#F26F5F"/>
	</linearGradient>
	<polygon clip-path="url(#SVGID_5_)" fill="url(#SVGID_6_)" points="542.285,220.354 608.23,300.002 525.728,368.311 
		459.782,288.663 	"/>
</g>
<g>
	<defs>
		<path id="SVGID_7_" d="M251.151,353.896c0,147.122,119.267,266.391,266.391,266.391c147.123,0,266.391-119.269,266.391-266.391
			c0-6.826-0.34-13.568-0.844-20.264h-27.43v-20.523h-30.273v-98.277h-34.783v-47.191h-58.587v-36.163h-23.902v-26.861h-35.705
			v11.787h-61.49V87.671C366.866,91.197,251.151,208.993,251.151,353.896"/>
	</defs>
	<clipPath id="SVGID_8_">
		<use xlink:href="#SVGID_7_"  overflow="visible"/>
	</clipPath>
	
		<linearGradient id="SVGID_9_" gradientUnits="userSpaceOnUse" x1="-371.1201" y1="959.8999" x2="-370.1201" y2="959.8999" gradientTransform="matrix(339.7536 410.3517 410.3517 -339.7536 -267459.9375 478568.5)">
		<stop  offset="0" style="stop-color:#3197EC"/>
		<stop  offset="1" style="stop-color:#00FAFF"/>
	</linearGradient>
	<polygon clip-path="url(#SVGID_8_)" fill="url(#SVGID_9_)" points="567.246,-174.042 1045.563,403.667 467.838,882 -10.48,304.291 
			"/>
</g>
<g>
	<defs>
		<rect id="SVGID_10_" x="596.271" y="26.174" width="36.405" height="36.405"/>
	</defs>
	<clipPath id="SVGID_11_">
		<use xlink:href="#SVGID_10_"  overflow="visible"/>
	</clipPath>
	
		<linearGradient id="SVGID_12_" gradientUnits="userSpaceOnUse" x1="-371.1201" y1="959.8882" x2="-370.1201" y2="959.8882" gradientTransform="matrix(359.4693 434.1642 434.1642 -359.4693 -282819.375 506111.4375)">
		<stop  offset="0" style="stop-color:#3197EC"/>
		<stop  offset="1" style="stop-color:#00FAFF"/>
	</linearGradient>
	<polygon clip-path="url(#SVGID_11_)" fill="url(#SVGID_12_)" points="617.87,8.292 650.56,47.773 611.078,80.462 578.389,40.98 	
		"/>
</g>
<g>
	<defs>
		<rect id="SVGID_13_" x="752.824" y="6.352" width="50.525" height="50.526"/>
	</defs>
	<clipPath id="SVGID_14_">
		<use xlink:href="#SVGID_13_"  overflow="visible"/>
	</clipPath>
	
		<linearGradient id="SVGID_15_" gradientUnits="userSpaceOnUse" x1="-371.1201" y1="959.8882" x2="-370.1201" y2="959.8882" gradientTransform="matrix(359.4666 434.1609 434.1609 -359.4666 -282714.25 506022.0938)">
		<stop  offset="0" style="stop-color:#3197EC"/>
		<stop  offset="1" style="stop-color:#00FAFF"/>
	</linearGradient>
	<polygon clip-path="url(#SVGID_14_)" fill="url(#SVGID_15_)" points="782.801,-18.467 828.169,36.329 773.373,81.698 
		728.005,26.902 	"/>
</g>
<g>
	<defs>
		<rect id="SVGID_16_" x="668.781" y="62.409" width="50.523" height="50.524"/>
	</defs>
	<clipPath id="SVGID_17_">
		<use xlink:href="#SVGID_16_"  overflow="visible"/>
	</clipPath>
	
		<linearGradient id="SVGID_18_" gradientUnits="userSpaceOnUse" x1="-371.1201" y1="959.8901" x2="-370.1201" y2="959.8901" gradientTransform="matrix(359.4688 434.1635 434.1635 -359.4688 -282793.5 506089.25)">
		<stop  offset="0" style="stop-color:#3197EC"/>
		<stop  offset="1" style="stop-color:#00FAFF"/>
	</linearGradient>
	<polygon clip-path="url(#SVGID_17_)" fill="url(#SVGID_18_)" points="698.756,37.591 744.123,92.385 689.329,137.751 
		643.962,82.958 	"/>
</g>
<g>
	<defs>
		<rect id="SVGID_19_" x="778.088" y="100.343" width="39.063" height="39.064"/>
	</defs>
	<clipPath id="SVGID_20_">
		<use xlink:href="#SVGID_19_"  overflow="visible"/>
	</clipPath>
	
		<linearGradient id="SVGID_21_" gradientUnits="userSpaceOnUse" x1="-371.1201" y1="959.8872" x2="-370.1201" y2="959.8872" gradientTransform="matrix(359.4676 434.162 434.162 -359.4676 -282746.5 506049.75)">
		<stop  offset="0" style="stop-color:#3197EC"/>
		<stop  offset="1" style="stop-color:#00FAFF"/>
	</linearGradient>
	<polygon clip-path="url(#SVGID_20_)" fill="url(#SVGID_21_)" points="801.265,81.154 836.341,123.52 793.976,158.596 
		758.898,116.231 	"/>
</g>
<g>
	<defs>
		<rect id="SVGID_22_" x="710.879" y="156.21" width="39.063" height="39.064"/>
	</defs>
	<clipPath id="SVGID_23_">
		<use xlink:href="#SVGID_22_"  overflow="visible"/>
	</clipPath>
	
		<linearGradient id="SVGID_24_" gradientUnits="userSpaceOnUse" x1="-371.1201" y1="959.8882" x2="-370.1201" y2="959.8882" gradientTransform="matrix(359.4697 434.1647 434.1647 -359.4697 -282815.6875 506108.5313)">
		<stop  offset="0" style="stop-color:#3197EC"/>
		<stop  offset="1" style="stop-color:#00FAFF"/>
	</linearGradient>
	<polygon clip-path="url(#SVGID_23_)" fill="url(#SVGID_24_)" points="734.056,137.021 769.132,179.387 726.767,214.463 
		691.689,172.098 	"/>
</g>
<g>
	<defs>
		<rect id="SVGID_25_" x="769.235" y="272.845" width="21.632" height="21.633"/>
	</defs>
	<clipPath id="SVGID_26_">
		<use xlink:href="#SVGID_25_"  overflow="visible"/>
	</clipPath>
	
		<linearGradient id="SVGID_27_" gradientUnits="userSpaceOnUse" x1="-371.1201" y1="959.8872" x2="-370.1201" y2="959.8872" gradientTransform="matrix(199.071 240.4364 240.4364 -199.071 -156245.1875 280464.5625)">
		<stop  offset="0" style="stop-color:#3197EC"/>
		<stop  offset="1" style="stop-color:#00FAFF"/>
	</linearGradient>
	<polygon clip-path="url(#SVGID_26_)" fill="url(#SVGID_27_)" points="782.068,262.219 801.493,285.68 778.032,305.104 
		758.608,281.644 	"/>
</g>
<g>
	<defs>
		<rect id="SVGID_28_" x="535.231" y="50.512" width="21.633" height="21.633"/>
	</defs>
	<clipPath id="SVGID_29_">
		<use xlink:href="#SVGID_28_"  overflow="visible"/>
	</clipPath>
	
		<linearGradient id="SVGID_30_" gradientUnits="userSpaceOnUse" x1="-371.1201" y1="959.8862" x2="-370.1201" y2="959.8862" gradientTransform="matrix(199.0706 240.4359 240.4359 -199.0706 -156478.8125 280241.625)">
		<stop  offset="0" style="stop-color:#3197EC"/>
		<stop  offset="1" style="stop-color:#00FAFF"/>
	</linearGradient>
	<polygon clip-path="url(#SVGID_29_)" fill="url(#SVGID_30_)" points="548.065,39.886 567.49,63.347 544.029,82.772 524.604,59.311 
			"/>
</g>
<g>
	<defs>
		<rect id="SVGID_31_" x="800.488" y="175.742" width="61.491" height="61.492"/>
	</defs>
	<clipPath id="SVGID_32_">
		<use xlink:href="#SVGID_31_"  overflow="visible"/>
	</clipPath>
	
		<linearGradient id="SVGID_33_" gradientUnits="userSpaceOnUse" x1="-371.1201" y1="959.8882" x2="-370.1201" y2="959.8882" gradientTransform="matrix(359.466 434.1602 434.1602 -359.466 -282768.25 506066.25)">
		<stop  offset="0" style="stop-color:#3197EC"/>
		<stop  offset="1" style="stop-color:#00FAFF"/>
	</linearGradient>
	<polygon clip-path="url(#SVGID_32_)" fill="url(#SVGID_33_)" points="836.971,145.536 892.186,212.225 825.497,267.44 
		770.282,200.751 	"/>
</g>
<g>
	<defs>
		<rect id="SVGID_34_" x="-371.12" y="-120.112" width="1920" height="1080"/>
	</defs>
	<clipPath id="SVGID_35_">
		<use xlink:href="#SVGID_34_"  overflow="visible"/>
	</clipPath>
	<polygon clip-path="url(#SVGID_35_)" fill="#FFFFFF" points="514.283,358.419 514.209,358.494 514.233,358.32 	"/>
	<polygon clip-path="url(#SVGID_35_)" fill="#FFFFFF" points="506.578,344.1 506.603,344.15 383.621,222.308 382.63,222.952 
		380.326,220.647 603.397,260.088 	"/>
	<polygon clip-path="url(#SVGID_35_)" fill="#FFFFFF" points="506.578,344.1 506.603,344.15 383.621,222.308 382.63,222.952 
		380.326,220.647 603.397,260.088 	"/>
	<polygon clip-path="url(#SVGID_35_)" fill="#FFFFFF" points="664.194,306.368 530.956,343.976 523.053,346.206 614.224,267.1 
		617.147,269.405 	"/>
	<polygon clip-path="url(#SVGID_35_)" fill="#FFFFFF" points="514.283,358.419 514.209,358.494 514.233,358.32 	"/>
	<polygon clip-path="url(#SVGID_35_)" fill="#FFFFFF" points="669.199,317.838 663.451,324.75 627.651,367.759 494.191,528.101 
		494.512,524.658 496.817,524.359 509.551,402.89 513.862,361.666 515.744,361.145 	"/>
	<polygon clip-path="url(#SVGID_35_)" fill="#FFFFFF" points="501.92,356.933 501.748,358.494 501.599,359.831 496.644,407.325 
		484.503,523.072 482.67,518.216 482.67,518.191 447.516,424.543 432.105,383.491 375.917,233.753 374.925,231.102 498.477,353.514 
		498.477,353.538 	"/>
</g>
<g>
	<defs>
		<polygon id="SVGID_36_" points="818.02,660.528 818.02,704.132 797.559,672.883 774.942,672.883 755.11,704.132 755.11,660.528 
			736.52,660.528 736.52,735.599 755.11,735.599 786.081,682.988 816.993,735.599 836.125,735.599 836.125,660.528 		"/>
	</defs>
	<clipPath id="SVGID_37_">
		<use xlink:href="#SVGID_36_"  overflow="visible"/>
	</clipPath>
	
		<linearGradient id="SVGID_38_" gradientUnits="userSpaceOnUse" x1="-371.1196" y1="959.8882" x2="-370.1196" y2="959.8882" gradientTransform="matrix(99.6059 0 0 -99.6059 37702.2578 96308.6094)">
		<stop  offset="0" style="stop-color:#3197EC"/>
		<stop  offset="1" style="stop-color:#00FAFF"/>
	</linearGradient>
	<rect x="736.52" y="660.528" clip-path="url(#SVGID_37_)" fill="url(#SVGID_38_)" width="99.605" height="75.071"/>
</g>
<g>
	<defs>
		<path id="SVGID_39_" d="M412.369,688.48c0.831,4.159,2.724,7.887,5.65,11.157c4.1,4.589,9.463,6.825,16.002,6.825h39.349
			c1.663,0,3.011,0.659,4.159,1.979c1.117,1.234,1.721,2.782,1.721,4.589c0,1.778-0.604,3.327-1.779,4.618
			c-1.204,1.319-2.667,1.98-4.388,1.98h-55.237l-5.134,16.231H473.8c6.682,0,12.16-2.382,16.404-7.141
			c4.217-4.705,6.339-10.355,6.339-16.893c0-6.312-2.122-11.788-6.339-16.464c-4.101-4.588-9.549-6.854-16.404-6.854h-37.513
			c-0.085,0-0.201,0-0.287-0.029H412.369z M434.021,660.805c-6.767,0-12.074,2.122-16.002,6.481
			c-2.639,2.868-4.446,6.108-5.392,9.691h74.022l5.133-16.173H434.021z"/>
	</defs>
	<clipPath id="SVGID_40_">
		<use xlink:href="#SVGID_39_"  overflow="visible"/>
	</clipPath>
	
		<linearGradient id="SVGID_41_" gradientUnits="userSpaceOnUse" x1="-371.1196" y1="959.8882" x2="-370.1201" y2="959.8882" gradientTransform="matrix(84.1748 0 0 -84.1748 31651.3281 81496.6953)">
		<stop  offset="0" style="stop-color:#3197EC"/>
		<stop  offset="1" style="stop-color:#00FAFF"/>
	</linearGradient>
	<rect x="412.369" y="660.805" clip-path="url(#SVGID_40_)" fill="url(#SVGID_41_)" width="84.174" height="75.055"/>
</g>
<g>
	<defs>
		<path id="SVGID_42_" d="M40.675,735.888h18.643v-44.969H40.675V735.888z M12.282,660.805l-5.019,16.318h82.053l5.019-16.318
			H12.282z"/>
	</defs>
	<clipPath id="SVGID_43_">
		<use xlink:href="#SVGID_42_"  overflow="visible"/>
	</clipPath>
	
		<linearGradient id="SVGID_44_" gradientUnits="userSpaceOnUse" x1="-371.1201" y1="959.8882" x2="-370.1201" y2="959.8882" gradientTransform="matrix(87.0711 0 0 -87.0711 32321.0938 84276.8516)">
		<stop  offset="0" style="stop-color:#3197EC"/>
		<stop  offset="1" style="stop-color:#00FAFF"/>
	</linearGradient>
	<rect x="7.263" y="660.805" clip-path="url(#SVGID_43_)" fill="url(#SVGID_44_)" width="87.072" height="75.083"/>
</g>
<g>
	<defs>
		<polygon id="SVGID_45_" points="369.214,660.797 369.214,709.931 320.574,660.797 301.82,660.797 301.82,735.867 320.574,735.867 
			320.574,686.911 369.214,735.867 388.022,735.867 388.022,660.797 		"/>
	</defs>
	<clipPath id="SVGID_46_">
		<use xlink:href="#SVGID_45_"  overflow="visible"/>
	</clipPath>
	
		<linearGradient id="SVGID_47_" gradientUnits="userSpaceOnUse" x1="-371.1196" y1="959.8882" x2="-370.1196" y2="959.8882" gradientTransform="matrix(86.2014 0 0 -86.2014 32292.8867 83442.0156)">
		<stop  offset="0" style="stop-color:#3197EC"/>
		<stop  offset="1" style="stop-color:#00FAFF"/>
	</linearGradient>
	<rect x="301.82" y="660.797" clip-path="url(#SVGID_46_)" fill="url(#SVGID_47_)" width="86.202" height="75.07"/>
</g>
<g>
	<defs>
		<path id="SVGID_48_" d="M222.468,715.82c-2.107-1.963-3.188-4.639-3.188-7.971v-19.333c0.107-3.45,1.187-6.185,3.188-8.209
			c2.108-2.08,4.811-3.094,8.161-3.094h31.996c3.403,0,6.105,1.014,8.214,3.094c2.053,1.963,3.134,4.699,3.187,8.209v19.154
			c0,3.452-1.081,6.187-3.187,8.149c-2,1.962-4.756,3.034-8.214,3.096h-31.996C227.385,718.916,224.684,717.903,222.468,715.82
			 M225.819,660.797c-7.729,0-13.89,2.498-18.485,7.433c-4.539,4.939-6.807,10.769-6.807,17.55v25.104
			c0,6.603,2.268,12.373,6.86,17.43c4.704,5.059,10.813,7.554,18.432,7.554h41.561c7.728,0,13.836-2.495,18.429-7.554
			c4.593-4.998,6.864-10.769,6.864-17.252v-25.458c0-6.724-2.271-12.494-6.811-17.373c-4.484-4.935-10.645-7.433-18.482-7.433
			H225.819z"/>
	</defs>
	<clipPath id="SVGID_49_">
		<use xlink:href="#SVGID_48_"  overflow="visible"/>
	</clipPath>
	
		<linearGradient id="SVGID_50_" gradientUnits="userSpaceOnUse" x1="-371.1206" y1="959.8872" x2="-370.1206" y2="959.8872" gradientTransform="matrix(92.1474 0 0 -92.1474 34398.2461 89149.5)">
		<stop  offset="0" style="stop-color:#3197EC"/>
		<stop  offset="1" style="stop-color:#00FAFF"/>
	</linearGradient>
	<rect x="200.527" y="660.797" clip-path="url(#SVGID_49_)" fill="url(#SVGID_50_)" width="92.146" height="75.07"/>
</g>
<g>
	<defs>
		<path id="SVGID_51_" d="M652.479,715.82c-2.106-1.963-3.188-4.639-3.188-7.971v-19.333c0.106-3.45,1.188-6.185,3.188-8.209
			c2.109-2.08,4.812-3.094,8.161-3.094h31.996c3.403,0,6.105,1.014,8.215,3.094c2.051,1.963,3.135,4.699,3.187,8.209v19.154
			c0,3.452-1.081,6.187-3.187,8.149c-2.001,1.962-4.757,3.034-8.215,3.096H660.64C657.396,718.916,654.694,717.903,652.479,715.82
			 M655.83,660.797c-7.729,0-13.891,2.498-18.484,7.433c-4.54,4.939-6.809,10.769-6.809,17.55v25.104
			c0,6.603,2.269,12.373,6.86,17.43c4.704,5.059,10.813,7.554,18.433,7.554h41.561c7.728,0,13.835-2.495,18.431-7.554
			c4.593-4.998,6.863-10.769,6.863-17.252v-25.458c0-6.724-2.271-12.494-6.812-17.373c-4.483-4.935-10.646-7.433-18.482-7.433
			H655.83z"/>
	</defs>
	<clipPath id="SVGID_52_">
		<use xlink:href="#SVGID_51_"  overflow="visible"/>
	</clipPath>
	
		<linearGradient id="SVGID_53_" gradientUnits="userSpaceOnUse" x1="-371.1211" y1="959.8872" x2="-370.1211" y2="959.8872" gradientTransform="matrix(92.1474 0 0 -92.1474 34828.3086 89149.5)">
		<stop  offset="0" style="stop-color:#3197EC"/>
		<stop  offset="1" style="stop-color:#00FAFF"/>
	</linearGradient>
	<rect x="630.537" y="660.797" clip-path="url(#SVGID_52_)" fill="url(#SVGID_53_)" width="92.147" height="75.07"/>
</g>
<g>
	<defs>
		<path id="SVGID_54_" d="M102.674,735.86h18.757v-21.93l-18.757-20.488V735.86z M108.414,660.805l-5.74,16.692h60.056
			c2.209,0,3.929,0.772,5.305,2.322c1.348,1.49,2.038,3.327,2.038,5.535c0,2.15-0.69,3.986-2.095,5.534
			c-1.462,1.606-3.241,2.381-5.421,2.381h-38.315l39.147,42.59h25.496l-27.561-27.59h4.475c6.711,0,12.16-2.381,16.376-7.084
			c4.273-4.819,6.395-10.411,6.395-16.835c0-6.367-2.122-11.902-6.395-16.605c-4.216-4.647-9.723-6.94-16.52-6.94H108.414z"/>
	</defs>
	<clipPath id="SVGID_55_">
		<use xlink:href="#SVGID_54_"  overflow="visible"/>
	</clipPath>
	
		<linearGradient id="SVGID_56_" gradientUnits="userSpaceOnUse" x1="-371.1206" y1="959.8882" x2="-370.1206" y2="959.8882" gradientTransform="matrix(86.2106 0 0 -86.2106 32097.1758 83450.8516)">
		<stop  offset="0" style="stop-color:#3197EC"/>
		<stop  offset="1" style="stop-color:#00FAFF"/>
	</linearGradient>
	<rect x="102.674" y="660.805" clip-path="url(#SVGID_55_)" fill="url(#SVGID_56_)" width="86.211" height="75.055"/>
</g>
<g>
	<defs>
		<path id="SVGID_57_" d="M959.358,735.86h18.757v-21.93l-18.757-20.488V735.86z M965.098,660.805l-5.739,16.692h60.056
			c2.209,0,3.929,0.772,5.306,2.322c1.348,1.49,2.035,3.327,2.035,5.535c0,2.15-0.688,3.986-2.093,5.534
			c-1.462,1.606-3.24,2.381-5.421,2.381h-38.315l39.147,42.59h25.496l-27.561-27.59h4.475c6.711,0,12.159-2.381,16.375-7.084
			c4.273-4.819,6.396-10.411,6.396-16.835c0-6.367-2.123-11.902-6.396-16.605c-4.216-4.647-9.722-6.94-16.52-6.94H965.098z"/>
	</defs>
	<clipPath id="SVGID_58_">
		<use xlink:href="#SVGID_57_"  overflow="visible"/>
	</clipPath>
	
		<linearGradient id="SVGID_59_" gradientUnits="userSpaceOnUse" x1="-371.1211" y1="959.8882" x2="-370.1211" y2="959.8882" gradientTransform="matrix(86.2106 0 0 -86.2106 32953.8633 83450.8516)">
		<stop  offset="0" style="stop-color:#3197EC"/>
		<stop  offset="1" style="stop-color:#00FAFF"/>
	</linearGradient>
	<rect x="959.358" y="660.805" clip-path="url(#SVGID_58_)" fill="url(#SVGID_59_)" width="86.211" height="75.055"/>
</g>
<g>
	<defs>
		<path id="SVGID_60_" d="M860.791,690.133v45.457h72.645l5.077-16.719h-59.138V705.42h50.16l4.646-15.287H860.791z M866.53,660.538
			l-5.739,16.69h72.645l5.077-16.69H866.53z"/>
	</defs>
	<clipPath id="SVGID_61_">
		<use xlink:href="#SVGID_60_"  overflow="visible"/>
	</clipPath>
	
		<linearGradient id="SVGID_62_" gradientUnits="userSpaceOnUse" x1="-371.1201" y1="959.8882" x2="-370.1201" y2="959.8882" gradientTransform="matrix(77.7219 0 0 -77.7219 29704.9688 75302.3828)">
		<stop  offset="0" style="stop-color:#3197EC"/>
		<stop  offset="1" style="stop-color:#00FAFF"/>
	</linearGradient>
	<rect x="860.791" y="660.538" clip-path="url(#SVGID_61_)" fill="url(#SVGID_62_)" width="77.722" height="75.053"/>
</g>
<g>
	<defs>
		<polygon id="SVGID_63_" points="585.758,660.523 585.758,688.6 535.77,688.6 535.77,688.57 535.77,660.523 517.185,660.523 
			517.185,688.57 517.185,692.321 517.185,735.606 535.77,735.606 535.77,705.319 585.758,705.319 585.758,735.606 604.343,735.606 
			604.343,660.523 		"/>
	</defs>
	<clipPath id="SVGID_64_">
		<use xlink:href="#SVGID_63_"  overflow="visible"/>
	</clipPath>
	
		<linearGradient id="SVGID_65_" gradientUnits="userSpaceOnUse" x1="-371.1201" y1="959.8882" x2="-370.1201" y2="959.8882" gradientTransform="matrix(87.157 0 0 -87.157 32862.8867 84359.0078)">
		<stop  offset="0" style="stop-color:#3197EC"/>
		<stop  offset="1" style="stop-color:#00FAFF"/>
	</linearGradient>
	<rect x="517.185" y="660.523" clip-path="url(#SVGID_64_)" fill="url(#SVGID_65_)" width="87.158" height="75.083"/>
</g>
</svg>
